<mxfile host="65bd71144e">
    <diagram id="LeW0GwIIXmkcreWbN-zC" name="Page-1">
        <mxGraphModel dx="590" dy="277" grid="1" gridSize="10" guides="1" tooltips="1" connect="1" arrows="1" fold="1" page="1" pageScale="1" pageWidth="850" pageHeight="1100" math="0" shadow="0">
            <root>
                <mxCell id="0"/>
                <mxCell id="1" parent="0"/>
                <mxCell id="BHjIfFnK7PsLAPyRQP0X-1" value="" style="rounded=0;whiteSpace=wrap;html=1;fillColor=#115FF3;strokeColor=#6c8ebf;" parent="1" vertex="1">
                    <mxGeometry width="850" height="70" as="geometry"/>
                </mxCell>
                <mxCell id="BHjIfFnK7PsLAPyRQP0X-2" value="Dashboard" style="text;html=1;strokeColor=none;fillColor=none;align=center;verticalAlign=middle;whiteSpace=wrap;rounded=0;" parent="1" vertex="1">
                    <mxGeometry x="90" y="20" width="60" height="30" as="geometry"/>
                </mxCell>
                <mxCell id="BHjIfFnK7PsLAPyRQP0X-3" value="Logout" style="text;html=1;strokeColor=none;fillColor=none;align=center;verticalAlign=middle;whiteSpace=wrap;rounded=0;" parent="1" vertex="1">
                    <mxGeometry x="690" y="20" width="60" height="30" as="geometry"/>
                </mxCell>
                <mxCell id="BHjIfFnK7PsLAPyRQP0X-4" value="" style="rounded=0;whiteSpace=wrap;html=1;fillColor=#115FF3;strokeColor=#6c8ebf;" parent="1" vertex="1">
                    <mxGeometry y="1030" width="850" height="70" as="geometry"/>
                </mxCell>
                <mxCell id="BHjIfFnK7PsLAPyRQP0X-5" value="Â© Copyright" style="text;html=1;strokeColor=none;fillColor=none;align=center;verticalAlign=middle;whiteSpace=wrap;rounded=0;" parent="1" vertex="1">
                    <mxGeometry x="80" y="1050" width="80" height="30" as="geometry"/>
                </mxCell>
                <mxCell id="BHjIfFnK7PsLAPyRQP0X-6" value="Privacy Policy" style="text;html=1;strokeColor=none;fillColor=none;align=center;verticalAlign=middle;whiteSpace=wrap;rounded=0;" parent="1" vertex="1">
                    <mxGeometry x="370" y="1050" width="80" height="30" as="geometry"/>
                </mxCell>
                <mxCell id="BHjIfFnK7PsLAPyRQP0X-7" value="About Us" style="text;html=1;strokeColor=none;fillColor=none;align=center;verticalAlign=middle;whiteSpace=wrap;rounded=0;" parent="1" vertex="1">
                    <mxGeometry x="680" y="1050" width="80" height="30" as="geometry"/>
                </mxCell>
                <mxCell id="BHjIfFnK7PsLAPyRQP0X-8" value="Catagory Title" style="fillColor=none;strokeColor=none;align=left;fontSize=14;" parent="1" vertex="1">
                    <mxGeometry width="260" height="40" relative="1" as="geometry">
                        <mxPoint x="10" y="100" as="offset"/>
                    </mxGeometry>
                </mxCell>
                <mxCell id="BHjIfFnK7PsLAPyRQP0X-9" value="CSS" style="html=1;shadow=0;dashed=0;shape=mxgraph.bootstrap.rrect;rSize=5;fillColor=none;strokeColor=#999999;align=left;spacing=15;fontSize=14;fontColor=#6C767D;" parent="1" vertex="1">
                    <mxGeometry width="800" height="30" relative="1" as="geometry">
                        <mxPoint x="10" y="140" as="offset"/>
                    </mxGeometry>
                </mxCell>
                <mxCell id="BHjIfFnK7PsLAPyRQP0X-11" value="$100 Answer" style="fillColor=none;strokeColor=none;align=left;fontSize=14;" parent="1" vertex="1">
                    <mxGeometry width="260" height="40" relative="1" as="geometry">
                        <mxPoint x="10" y="180" as="offset"/>
                    </mxGeometry>
                </mxCell>
                <mxCell id="BHjIfFnK7PsLAPyRQP0X-12" value="BLANK stands for Cascading Style Sheets" style="html=1;shadow=0;dashed=0;shape=mxgraph.bootstrap.rrect;rSize=5;fillColor=none;strokeColor=#999999;align=left;spacing=15;fontSize=14;fontColor=#6C767D;" parent="1" vertex="1">
                    <mxGeometry width="800" height="30" relative="1" as="geometry">
                        <mxPoint x="10" y="220" as="offset"/>
                    </mxGeometry>
                </mxCell>
                <mxCell id="BHjIfFnK7PsLAPyRQP0X-14" value="Add Catagory" style="html=1;shadow=0;dashed=0;shape=mxgraph.bootstrap.rrect;rSize=5;fillColor=#0085FC;strokeColor=none;align=center;fontSize=14;fontColor=#FFFFFF;" parent="1" vertex="1">
                    <mxGeometry width="110" height="40" relative="1" as="geometry">
                        <mxPoint x="680" y="960" as="offset"/>
                    </mxGeometry>
                </mxCell>
                <mxCell id="BHjIfFnK7PsLAPyRQP0X-15" value="$100 Question" style="fillColor=none;strokeColor=none;align=left;fontSize=14;" parent="1" vertex="1">
                    <mxGeometry x="10" y="260" width="260" height="40" as="geometry"/>
                </mxCell>
                <mxCell id="BHjIfFnK7PsLAPyRQP0X-16" value="What is CSS?" style="html=1;shadow=0;dashed=0;shape=mxgraph.bootstrap.rrect;rSize=5;fillColor=none;strokeColor=#999999;align=left;spacing=15;fontSize=14;fontColor=#6C767D;" parent="1" vertex="1">
                    <mxGeometry x="10" y="300" width="800" height="30" as="geometry"/>
                </mxCell>
                <mxCell id="BHjIfFnK7PsLAPyRQP0X-20" value="$200 Answer" style="fillColor=none;strokeColor=none;align=left;fontSize=14;" parent="1" vertex="1">
                    <mxGeometry x="10" y="330" width="260" height="40" as="geometry"/>
                </mxCell>
                <mxCell id="BHjIfFnK7PsLAPyRQP0X-21" value="BLANK stands for Cascading Style Sheets" style="html=1;shadow=0;dashed=0;shape=mxgraph.bootstrap.rrect;rSize=5;fillColor=none;strokeColor=#999999;align=left;spacing=15;fontSize=14;fontColor=#6C767D;" parent="1" vertex="1">
                    <mxGeometry x="10" y="370" width="800" height="30" as="geometry"/>
                </mxCell>
                <mxCell id="BHjIfFnK7PsLAPyRQP0X-22" value="$200 Question" style="fillColor=none;strokeColor=none;align=left;fontSize=14;" parent="1" vertex="1">
                    <mxGeometry x="10" y="410" width="260" height="40" as="geometry"/>
                </mxCell>
                <mxCell id="BHjIfFnK7PsLAPyRQP0X-23" value="What is CSS?" style="html=1;shadow=0;dashed=0;shape=mxgraph.bootstrap.rrect;rSize=5;fillColor=none;strokeColor=#999999;align=left;spacing=15;fontSize=14;fontColor=#6C767D;" parent="1" vertex="1">
                    <mxGeometry x="10" y="450" width="800" height="30" as="geometry"/>
                </mxCell>
                <mxCell id="BHjIfFnK7PsLAPyRQP0X-24" value="$300 Answer" style="fillColor=none;strokeColor=none;align=left;fontSize=14;" parent="1" vertex="1">
                    <mxGeometry x="10" y="480" width="260" height="40" as="geometry"/>
                </mxCell>
                <mxCell id="BHjIfFnK7PsLAPyRQP0X-25" value="BLANK stands for Cascading Style Sheets" style="html=1;shadow=0;dashed=0;shape=mxgraph.bootstrap.rrect;rSize=5;fillColor=none;strokeColor=#999999;align=left;spacing=15;fontSize=14;fontColor=#6C767D;" parent="1" vertex="1">
                    <mxGeometry x="10" y="520" width="800" height="30" as="geometry"/>
                </mxCell>
                <mxCell id="BHjIfFnK7PsLAPyRQP0X-26" value="$300 Question" style="fillColor=none;strokeColor=none;align=left;fontSize=14;" parent="1" vertex="1">
                    <mxGeometry x="10" y="560" width="260" height="40" as="geometry"/>
                </mxCell>
                <mxCell id="BHjIfFnK7PsLAPyRQP0X-27" value="What is CSS?" style="html=1;shadow=0;dashed=0;shape=mxgraph.bootstrap.rrect;rSize=5;fillColor=none;strokeColor=#999999;align=left;spacing=15;fontSize=14;fontColor=#6C767D;" parent="1" vertex="1">
                    <mxGeometry x="10" y="600" width="800" height="30" as="geometry"/>
                </mxCell>
                <mxCell id="BHjIfFnK7PsLAPyRQP0X-28" value="$400 Answer" style="fillColor=none;strokeColor=none;align=left;fontSize=14;" parent="1" vertex="1">
                    <mxGeometry x="10" y="630" width="260" height="40" as="geometry"/>
                </mxCell>
                <mxCell id="BHjIfFnK7PsLAPyRQP0X-29" value="BLANK stands for Cascading Style Sheets" style="html=1;shadow=0;dashed=0;shape=mxgraph.bootstrap.rrect;rSize=5;fillColor=none;strokeColor=#999999;align=left;spacing=15;fontSize=14;fontColor=#6C767D;" parent="1" vertex="1">
                    <mxGeometry x="10" y="670" width="800" height="30" as="geometry"/>
                </mxCell>
                <mxCell id="BHjIfFnK7PsLAPyRQP0X-30" value="$400 Question" style="fillColor=none;strokeColor=none;align=left;fontSize=14;" parent="1" vertex="1">
                    <mxGeometry x="10" y="710" width="260" height="40" as="geometry"/>
                </mxCell>
                <mxCell id="BHjIfFnK7PsLAPyRQP0X-31" value="What is CSS?" style="html=1;shadow=0;dashed=0;shape=mxgraph.bootstrap.rrect;rSize=5;fillColor=none;strokeColor=#999999;align=left;spacing=15;fontSize=14;fontColor=#6C767D;" parent="1" vertex="1">
                    <mxGeometry x="10" y="750" width="800" height="30" as="geometry"/>
                </mxCell>
                <mxCell id="BHjIfFnK7PsLAPyRQP0X-32" value="$500 Answer" style="fillColor=none;strokeColor=none;align=left;fontSize=14;" parent="1" vertex="1">
                    <mxGeometry x="10" y="780" width="260" height="40" as="geometry"/>
                </mxCell>
                <mxCell id="BHjIfFnK7PsLAPyRQP0X-33" value="BLANK stands for Cascading Style Sheets" style="html=1;shadow=0;dashed=0;shape=mxgraph.bootstrap.rrect;rSize=5;fillColor=none;strokeColor=#999999;align=left;spacing=15;fontSize=14;fontColor=#6C767D;" parent="1" vertex="1">
                    <mxGeometry x="10" y="820" width="800" height="30" as="geometry"/>
                </mxCell>
                <mxCell id="BHjIfFnK7PsLAPyRQP0X-34" value="$500 Question" style="fillColor=none;strokeColor=none;align=left;fontSize=14;" parent="1" vertex="1">
                    <mxGeometry x="10" y="860" width="260" height="40" as="geometry"/>
                </mxCell>
                <mxCell id="BHjIfFnK7PsLAPyRQP0X-35" value="What is CSS?" style="html=1;shadow=0;dashed=0;shape=mxgraph.bootstrap.rrect;rSize=5;fillColor=none;strokeColor=#999999;align=left;spacing=15;fontSize=14;fontColor=#6C767D;" parent="1" vertex="1">
                    <mxGeometry x="10" y="900" width="800" height="30" as="geometry"/>
                </mxCell>
            </root>
        </mxGraphModel>
    </diagram>
</mxfile>